<svg width="80" height="80" viewBox="0 0 80 80" fill="none" xmlns="http://www.w3.org/2000/svg">
<g filter="url(#filter0_b_12_3769)">
<rect width="80" height="80" rx="40" fill="black" fill-opacity="0.6"/>
<path fill-rule="evenodd" clip-rule="evenodd" d="M43.6802 28.05C44.4357 28.2833 45.1579 28.5833 45.8468 28.95L48.9018 27.1166C49.2204 26.9256 49.5936 26.8464 49.9623 26.8917C50.331 26.937 50.674 27.1042 50.9368 27.3666L52.6335 29.0633C52.896 29.3261 53.0631 29.6691 53.1084 30.0378C53.1537 30.4065 53.0746 30.7798 52.8835 31.0983L51.0502 34.1533C51.4168 34.8422 51.7168 35.5644 51.9502 36.32L55.4052 37.185C55.7656 37.2753 56.0855 37.4834 56.3141 37.7763C56.5427 38.0692 56.6668 38.4301 56.6668 38.8016V41.1983C56.6668 41.5699 56.5427 41.9308 56.3141 42.2237C56.0855 42.5166 55.7656 42.7247 55.4052 42.815L51.9502 43.68C51.7168 44.4355 51.4168 45.1578 51.0502 45.8466L52.8835 48.9016C53.0746 49.2202 53.1537 49.5935 53.1084 49.9621C53.0631 50.3308 52.896 50.6738 52.6335 50.9366L50.9368 52.6333C50.674 52.8958 50.331 53.063 49.9623 53.1083C49.5936 53.1535 49.2204 53.0744 48.9018 52.8833L45.8468 51.05C45.1579 51.4166 44.4357 51.7166 43.6802 51.95L42.8152 55.405C42.7249 55.7654 42.5167 56.0853 42.2238 56.3139C41.9309 56.5425 41.57 56.6666 41.1985 56.6666H38.8018C38.4303 56.6666 38.0694 56.5425 37.7765 56.3139C37.4836 56.0853 37.2754 55.7654 37.1852 55.405L36.3202 51.95C35.5713 51.7186 34.8459 51.4172 34.1535 51.05L31.0985 52.8833C30.7799 53.0744 30.4067 53.1535 30.038 53.1083C29.6693 53.063 29.3263 52.8958 29.0635 52.6333L27.3668 50.9366C27.1043 50.6738 26.9372 50.3308 26.8919 49.9621C26.8466 49.5935 26.9258 49.2202 27.1168 48.9016L28.9502 45.8466C28.5829 45.1542 28.2816 44.4288 28.0502 43.68L24.5952 42.815C24.235 42.7248 23.9153 42.5169 23.6868 42.2243C23.4582 41.9317 23.3339 41.5712 23.3335 41.2V38.8033C23.3335 38.4318 23.4577 38.0709 23.6863 37.778C23.9148 37.4851 24.2348 37.2769 24.5952 37.1866L28.0502 36.3216C28.2835 35.5661 28.5835 34.8439 28.9502 34.155L27.1168 31.1C26.9258 30.7814 26.8466 30.4082 26.8919 30.0395C26.9372 29.6708 27.1043 29.3278 27.3668 29.065L29.0635 27.3666C29.3263 27.1042 29.6693 26.937 30.038 26.8917C30.4067 26.8464 30.7799 26.9256 31.0985 27.1166L34.1535 28.95C34.8424 28.5833 35.5646 28.2833 36.3202 28.05L37.1852 24.595C37.2754 24.2348 37.4833 23.9151 37.7758 23.6866C38.0684 23.458 38.4289 23.3337 38.8002 23.3333H41.1968C41.5684 23.3333 41.9293 23.4575 42.2222 23.6861C42.5151 23.9147 42.7232 24.2346 42.8135 24.595L43.6802 28.05ZM40.0002 46.6666C41.7683 46.6666 43.464 45.9643 44.7142 44.714C45.9645 43.4638 46.6668 41.7681 46.6668 40C46.6668 38.2319 45.9645 36.5362 44.7142 35.2859C43.464 34.0357 41.7683 33.3333 40.0002 33.3333C38.2321 33.3333 36.5364 34.0357 35.2861 35.2859C34.0359 36.5362 33.3335 38.2319 33.3335 40C33.3335 41.7681 34.0359 43.4638 35.2861 44.714C36.5364 45.9643 38.2321 46.6666 40.0002 46.6666Z" fill="white"/>
</g>
<defs>
<filter id="filter0_b_12_3769" x="-12" y="-12" width="104" height="104" filterUnits="userSpaceOnUse" color-interpolation-filters="sRGB">
<feFlood flood-opacity="0" result="BackgroundImageFix"/>
<feGaussianBlur in="BackgroundImageFix" stdDeviation="6"/>
<feComposite in2="SourceAlpha" operator="in" result="effect1_backgroundBlur_12_3769"/>
<feBlend mode="normal" in="SourceGraphic" in2="effect1_backgroundBlur_12_3769" result="shape"/>
</filter>
</defs>
</svg>
