<svg width="34" height="23" viewBox="0 0 34 23" fill="none" xmlns="http://www.w3.org/2000/svg">
<path d="M5.33333 0.666656C4.11776 0.666656 2.95197 1.14954 2.09243 2.00908C1.23289 2.86863 0.75 4.03441 0.75 5.24999V17.75C0.75 18.9656 1.23289 20.1314 2.09243 20.9909C2.95197 21.8504 4.11776 22.3333 5.33333 22.3333H19.5C20.7156 22.3333 21.8814 21.8504 22.7409 20.9909C23.6004 20.1314 24.0833 18.9656 24.0833 17.75V15.0933L29.7817 20.1683C31.1233 21.3633 33.25 20.41 33.25 18.6117V3.77499C33.25 1.97499 31.1233 1.02332 29.7817 2.21832L24.0833 7.29332V5.24999C24.0833 4.03441 23.6004 2.86863 22.7409 2.00908C21.8814 1.14954 20.7156 0.666656 19.5 0.666656H5.33333Z" fill="white" fill-opacity="0.8"/>
</svg>
